<svg width="78" height="43" viewBox="0 0 78 53" fill="none" xmlns="http://www.w3.org/2000/svg">
<path d="M14.6769 38.2712L13.7982 38.8309L13.9505 39.0042L14.8127 38.5064L14.6769 38.2712ZM15.4951 36.7015L12.4381 38.4664L12.5905 38.6398L15.6309 36.9367L15.4951 36.7015ZM16.2062 35.0368L11.0163 38.0855L11.1686 38.2588L16.3419 35.272L16.2062 35.0368ZM16.9625 33.4505L9.59445 37.7045L9.74678 37.8778L17.0365 33.6691L16.9625 33.4505ZM17.7189 31.8642L8.79968 36.9615L8.93544 37.1966L17.8712 32.0376L17.7189 31.8642ZM18.4918 30.2161L9.55601 35.3752L9.69178 35.6103L18.6275 30.4513L18.4918 30.2161ZM19.1863 28.6132L10.2505 33.7723L10.4029 33.9456L19.322 28.8484L19.1863 28.6132ZM23.9677 25.8527L22.0081 26.9841L22.1604 27.1574L24.0416 26.0713L23.9677 25.8527ZM19.9592 26.9651L11.0234 32.1242L11.1592 32.3593L20.0949 27.2003L19.9592 26.9651ZM24.7406 24.2046L20.6481 26.6197L20.8004 26.793L24.8763 24.4397L24.7406 24.2046ZM25.4969 22.6183L11.7798 30.5379L11.9155 30.773L25.6492 22.7916L25.4969 22.6183ZM24.2937 22.1634L12.5527 28.8898L12.6884 29.1249L24.446 22.3367L24.2937 22.1634ZM22.8718 21.7824L13.309 27.3035L13.4448 27.5386L23.0241 21.9557L22.8718 21.7824ZM23.0176 20.4963L14.0035 25.7006L14.1558 25.8739L23.1534 20.7314L23.0176 20.4963ZM23.7905 18.8482L13.6625 24.7479L13.8148 24.9212L23.9263 19.0833L23.7905 18.8482ZM24.5469 17.2619L12.2406 24.3669L12.393 24.5402L24.6208 17.4805L24.5469 17.2619ZM25.258 15.5972L10.8188 23.9859L10.9711 24.1592L25.3937 15.8324L25.258 15.5972ZM15.8862 19.9106L9.45877 23.6215L9.6111 23.7948L16.0386 20.0839L15.8862 19.9106ZM26.0143 14.0109L17.0786 19.17L17.2143 19.4051L26.1501 14.2461L26.0143 14.0109ZM14.4644 19.5296L8.03693 23.2405L8.18926 23.4138L14.6167 19.7029L14.4644 19.5296ZM26.7706 12.4246L17.8349 17.5837L17.9872 17.757L26.923 12.5979L26.7706 12.4246ZM13.1044 19.1652L6.6769 22.8761L6.82923 23.0494L13.2567 19.3385L13.1044 19.1652ZM27.5435 10.7765L18.6078 15.9355L18.7436 16.1707L27.6793 11.0116L27.5435 10.7765ZM11.6825 18.7842L5.25506 22.4951L5.40739 22.6684L11.8349 18.9575L11.6825 18.7842ZM28.2999 9.19019L19.3641 14.3492L19.4999 14.5844L28.4522 9.36352L28.2999 9.19019ZM11.4364 17.7244L3.83322 22.1141L3.98555 22.2875L11.5722 17.9596L11.4364 17.7244ZM29.0728 7.54207L20.137 12.7011L20.2728 12.9363L29.2085 7.77722L29.0728 7.54207ZM13.1499 15.5332L4.05743 20.7828L4.1932 21.0179L13.2857 15.7684L13.1499 15.5332ZM29.7673 5.93921L20.8315 11.0983L20.9673 11.3334L29.903 6.17436L29.7673 5.93921ZM14.8634 13.3421L4.83033 19.1347L4.9661 19.3698L14.9992 13.5772L14.8634 13.3421ZM30.5402 4.29109L21.6044 9.45014L21.7402 9.6853L30.6759 4.52624L30.5402 4.29109ZM16.6388 11.1675L5.66505 17.5031L5.739 17.7217L16.7127 11.386L16.6388 11.1675ZM31.2965 2.70479L22.3608 7.86385L22.4965 8.099L31.4323 2.93995L31.2965 2.70479ZM18.3357 9.03809L7.04846 15.5548L7.18422 15.7899L18.488 9.21143L18.3357 9.03809ZM32.0694 1.05668L23.1171 6.27755L23.2694 6.45088L32.2052 1.29183L32.0694 1.05668ZM20.0492 6.84692L8.84034 13.3184L8.97611 13.5535L20.2015 7.02025L20.0492 6.84692ZM32.8258 -0.529621L23.89 4.62943L24.0258 4.86458L32.9615 -0.294469L32.8258 -0.529621ZM21.7627 4.65574L10.6322 11.0819L10.768 11.3171L21.8985 4.8909L21.7627 4.65574ZM33.5987 -2.17774L24.6463 3.04313L24.7987 3.21647L33.7344 -1.94259L33.5987 -2.17774ZM23.538 2.48113L12.4076 8.90732L12.5599 9.08065L23.612 2.69972L23.538 2.48113ZM34.2932 -3.7806L25.3574 1.37845L25.4932 1.6136L34.4289 -3.54545L34.2932 -3.7806ZM25.2515 0.289959L14.1994 6.67089L14.3352 6.90604L25.3873 0.525107L25.2515 0.289959ZM35.0495 -5.3669L26.1138 -0.207847L26.2495 0.0273055L35.2018 -5.19357L35.0495 -5.3669ZM34.1763 -6.06466L15.9913 4.43446L16.1271 4.66961L34.3287 -5.89133L34.1763 -6.06466ZM32.8163 -6.42908L17.7832 2.19803L17.919 2.43318L32.9687 -6.25575L32.8163 -6.42908ZM31.3945 -6.81006L19.5585 0.0234194L19.7109 0.19675L31.5468 -6.63673L31.3945 -6.81006ZM30.0345 -7.17448L21.4123 -2.19645L21.548 -1.96129L30.1868 -7.00115L30.0345 -7.17448ZM28.6126 -7.55546L23.2041 -4.43288L23.3399 -4.19772L28.7649 -7.38213L28.6126 -7.55546ZM27.2526 -7.91988L24.996 -6.66931L25.1318 -6.43415L27.4049 -7.74655L27.2526 -7.91988ZM39.228 40.8079L33.9762 43.84L34.112 44.0752L39.3019 41.0265L39.228 40.8079ZM39.9843 39.2216L32.1459 43.7471L32.2982 43.9205L40.0582 39.4402L39.9843 39.2216ZM40.6788 37.6188L30.7241 43.3661L30.8764 43.5395L40.8311 37.7921L40.6788 37.6188ZM41.4517 35.9707L29.3641 43.0017L29.5164 43.1751L41.5875 36.2058L41.4517 35.9707ZM42.208 34.3844L27.9422 42.6207L28.0945 42.7941L42.3438 34.6195L42.208 34.3844ZM42.9191 32.7197L26.5204 42.2398L26.6727 42.4131L43.0549 32.9548L42.9191 32.7197ZM31.5878 38.1644L25.1603 41.8753L25.3127 42.0487L31.7401 38.3378L31.5878 38.1644ZM43.7373 31.1499L34.5664 36.4448L34.7022 36.6799L43.873 31.3851L43.7373 31.1499ZM30.166 37.7835L23.7551 41.4325L23.8908 41.6677L30.3183 37.9568L30.166 37.7835ZM44.5102 29.5018L35.3393 34.7966L35.4751 35.0318L44.6459 29.737L44.5102 29.5018ZM29.231 37.0691L23.3356 40.5251L23.4714 40.7602L29.3668 37.3043L29.231 37.0691ZM45.2047 27.899L36.0338 33.1938L36.1696 33.4289L45.3405 28.1341L45.2047 27.899ZM28.8734 36.1782L22.9328 39.5558L23.0686 39.7909L28.9473 36.3968L28.8734 36.1782ZM45.961 26.3127L36.8067 31.5457L36.9425 31.7808L46.0515 26.4694L45.961 26.3127ZM29.4895 34.6206L22.5134 38.6483L22.6491 38.8835L29.6253 34.8558L29.4895 34.6206ZM46.7339 24.6646L37.563 29.9594L37.6988 30.1945L46.8079 24.8831L46.7339 24.6646ZM30.2459 33.0343L22.094 37.7408L22.2463 37.9142L30.3982 33.2077L30.2459 33.0343ZM47.4903 23.0783L38.3359 28.3113L38.4717 28.5464L47.5642 23.2968L47.4903 23.0783ZM31.0188 31.3862L21.9262 36.6358L22.0002 36.8544L31.0927 31.6048L31.0188 31.3862ZM48.2632 21.4301L39.0923 26.725L39.228 26.9601L48.3371 21.6487L48.2632 21.4301ZM31.7133 29.7833L22.6208 35.0329L22.7565 35.2681L31.8656 29.9567L31.7133 29.7833ZM48.9577 19.8273L39.8652 25.0768L40.0009 25.312L49.0934 20.0624L48.9577 19.8273ZM32.4862 28.1352L23.3937 33.3848L23.5294 33.6199L32.6219 28.3704L32.4862 28.1352ZM49.6522 18.2244L40.5597 23.474L40.6955 23.7091L49.8045 18.3977L49.6522 18.2244ZM33.2425 26.5489L24.15 31.7985L24.2858 32.0336L33.3948 26.7223L33.2425 26.5489ZM50.4251 16.5763L41.3326 21.8259L41.4684 22.061L50.5609 16.8114L50.4251 16.5763ZM34.0154 24.9008L24.9229 30.1504L25.0587 30.3855L34.1512 25.136L34.0154 24.9008ZM51.1814 14.99L42.0889 20.2396L42.2247 20.4747L51.3338 15.1633L51.1814 14.99ZM34.7717 23.3145L25.6792 28.5641L25.7532 28.7827L34.9075 23.5497L34.7717 23.3145ZM51.9543 13.3419L42.8453 18.6533L42.9976 18.8266L52.0901 13.577L51.9543 13.3419ZM35.4828 21.6498L26.3738 26.9612L26.5261 27.1345L35.6186 21.885L35.4828 21.6498ZM52.7107 11.7556L43.6182 17.0051L43.7539 17.2403L52.8464 11.9907L52.7107 11.7556ZM36.2392 20.0635L27.1467 25.3131L27.2824 25.5482L36.3749 20.2987L36.2392 20.0635ZM53.4836 10.1075L44.3745 15.4188L44.5268 15.5922L53.6193 10.3426L53.4836 10.1075ZM37.0121 18.4154L27.903 23.7268L28.0388 23.9619L37.1478 18.6506L37.0121 18.4154ZM54.2399 8.52117L45.1474 13.7707L45.2832 14.0059L54.3757 8.75632L54.2399 8.52117ZM37.7684 16.8291L28.6759 22.0787L28.8117 22.3138L37.9042 17.0643L37.7684 16.8291ZM54.9344 6.91831L45.8419 12.1679L45.9942 12.3412L55.0867 7.09164L54.9344 6.91831ZM38.5413 15.181L29.4322 20.4924L29.568 20.7275L38.6771 15.4162L38.5413 15.181ZM55.7073 5.27019L46.6148 10.5198L46.7506 10.7549L55.8431 5.50534L55.7073 5.27019ZM39.2976 13.5947L30.1433 18.8277L30.2791 19.0628L39.3716 13.8133L39.2976 13.5947ZM56.3235 3.71258L47.3711 8.93346L47.5069 9.1686L56.4592 3.94773L56.3235 3.71258ZM40.0705 11.9466L30.8996 17.2414L31.0354 17.4766L40.1445 12.1652L40.0705 11.9466ZM55.904 2.80511L48.1441 7.28533L48.2798 7.52049L56.0398 3.04026L55.904 2.80511ZM40.8269 10.3603L31.656 15.6551L31.8083 15.8284L40.9008 10.5789L40.8269 10.3603ZM55.5012 1.83581L48.9004 5.69904L49.0361 5.93419L55.6369 2.07096L55.5012 1.83581ZM41.5998 8.71217L32.4289 14.007L32.5646 14.2421L41.6737 8.93076L41.5998 8.71217ZM55.0818 0.928339L49.1412 4.30589L49.2769 4.54104L55.1557 1.14692L55.0818 0.928339ZM42.3561 7.12587L33.1852 12.4207L33.321 12.6558L42.4919 7.36102L42.3561 7.12587ZM54.6171 -0.0575206L48.7217 3.39841L48.8575 3.63356L54.7529 0.177628L54.6171 -0.0575206ZM43.0506 5.52301L33.8963 10.756L34.0321 10.9912L43.2029 5.69634L43.0506 5.52301ZM53.946 -0.767413L47.5185 2.94348L47.6708 3.11681L54.0983 -0.594083L53.946 -0.767413ZM43.8235 3.87489L34.6526 9.16971L34.7884 9.40486L43.9593 4.11004L43.8235 3.87489ZM52.5241 -1.14839L46.0966 2.5625L46.249 2.73583L52.6764 -0.975064L52.5241 -1.14839ZM51.1641 -1.51281L35.4255 7.52159L35.5613 7.75674L51.3164 -1.33948L51.1641 -1.51281ZM49.7422 -1.89379L36.1819 5.9353L36.3176 6.17044L49.8946 -1.72046L49.7422 -1.89379ZM48.3822 -2.25821L36.9382 4.349L37.0905 4.52233L48.5345 -2.08488L48.3822 -2.25821ZM46.9604 -2.63919L37.6493 2.68432L37.785 2.91946L47.0509 -2.48243L46.9604 -2.63919ZM45.5385 -3.02017L38.4056 1.09802L38.5414 1.33317L45.6909 -2.84684L45.5385 -3.02017ZM40.7462 -1.4552L39.1785 -0.5501L39.3143 -0.314951L40.882 -1.22005L40.7462 -1.4552ZM56.6343 49.5137L55.7556 50.0733L55.9079 50.2466L56.7701 49.7488L56.6343 49.5137ZM57.4525 47.944L54.3955 49.7089L54.5479 49.8822L57.5883 48.1791L57.4525 47.944ZM58.1636 46.2793L52.9737 49.3279L53.126 49.5012L58.2993 46.5144L58.1636 46.2793ZM58.9199 44.693L51.5519 48.9469L51.7042 49.1203L58.9939 44.9116L58.9199 44.693ZM59.6763 43.1067L50.7571 48.2039L50.8928 48.4391L59.8286 43.28L59.6763 43.1067ZM60.4492 41.4586L51.5134 46.6176L51.6492 46.8528L60.5849 41.6937L60.4492 41.4586ZM61.1437 39.8557L52.2079 45.0147L52.3603 45.1881L61.2794 40.0908L61.1437 39.8557ZM65.9251 37.0952L63.9655 38.2265L64.1178 38.3999L65.999 37.3137L65.9251 37.0952ZM61.9166 38.2076L52.9808 43.3666L53.1166 43.6018L62.0523 38.4427L61.9166 38.2076ZM66.698 35.447L62.6055 37.8621L62.7578 38.0354L66.8337 35.6822L66.698 35.447ZM67.4543 33.8607L53.7372 41.7803L53.8729 42.0155L67.6066 34.0341L67.4543 33.8607ZM66.2511 33.4058L54.5101 40.1322L54.6458 40.3674L66.4034 33.5791L66.2511 33.4058ZM64.8292 33.0248L55.2664 38.5459L55.4022 38.7811L64.9815 33.1982L64.8292 33.0248ZM64.975 31.7387L55.9609 36.9431L56.1132 37.1164L65.1108 31.9739L64.975 31.7387ZM65.7479 30.0906L55.6199 35.9903L55.7722 36.1637L65.8837 30.3258L65.7479 30.0906ZM66.5043 28.5043L54.198 35.6093L54.3504 35.7827L66.5782 28.7229L66.5043 28.5043ZM67.2154 26.8397L52.7762 35.2284L52.9285 35.4017L67.3511 27.0748L67.2154 26.8397ZM57.8436 31.153L51.4162 34.8639L51.5685 35.0373L57.996 31.3264L57.8436 31.153ZM67.9717 25.2534L59.036 30.4124L59.1717 30.6476L68.1075 25.4885L67.9717 25.2534ZM56.4218 30.7721L49.9943 34.483L50.1467 34.6563L56.5741 30.9454L56.4218 30.7721ZM68.728 23.6671L59.7923 28.8261L59.9446 28.9994L68.8804 23.8404L68.728 23.6671ZM55.0618 30.4076L48.6343 34.1185L48.7866 34.2919L55.2141 30.581L55.0618 30.4076ZM69.5009 22.0189L60.5652 27.178L60.701 27.4131L69.6367 22.2541L69.5009 22.0189ZM53.6399 30.0267L47.2125 33.7376L47.3648 33.9109L53.7923 30.2L53.6399 30.0267ZM70.2573 20.4326L61.3215 25.5917L61.4573 25.8268L70.4096 20.606L70.2573 20.4326ZM53.3938 28.9669L45.7906 33.3566L45.943 33.5299L53.5296 29.202L53.3938 28.9669ZM71.0302 18.7845L62.0944 23.9436L62.2302 24.1787L71.1659 19.0197L71.0302 18.7845ZM55.1073 26.7757L46.0148 32.0253L46.1506 32.2604L55.2431 27.0108L55.1073 26.7757ZM71.7247 17.1817L62.7889 22.3407L62.9247 22.5759L71.8604 17.4168L71.7247 17.1817ZM56.8208 24.5845L46.7877 30.3771L46.9235 30.6123L56.9566 24.8197L56.8208 24.5845ZM72.4976 15.5335L63.5618 20.6926L63.6976 20.9277L72.6333 15.7687L72.4976 15.5335ZM58.5962 22.4099L47.6225 28.7456L47.6964 28.9642L58.6701 22.6285L58.5962 22.4099ZM73.2539 13.9472L64.3182 19.1063L64.4539 19.3415L73.3897 14.1824L73.2539 13.9472ZM60.2931 20.2805L49.0059 26.7972L49.1416 27.0324L60.4454 20.4539L60.2931 20.2805ZM74.0268 12.2991L65.0745 17.52L65.2268 17.6933L74.1626 12.5343L74.0268 12.2991ZM62.0066 18.0894L50.7977 24.5608L50.9335 24.796L62.1589 18.2627L62.0066 18.0894ZM74.7832 10.7128L65.8474 15.8719L65.9832 16.107L74.9189 10.948L74.7832 10.7128ZM63.7201 15.8982L52.5896 22.3244L52.7254 22.5595L63.8559 16.1333L63.7201 15.8982ZM75.5561 9.06472L66.6038 14.2856L66.7561 14.4589L75.6918 9.29987L75.5561 9.06472ZM65.4954 13.7236L54.365 20.1498L54.5173 20.3231L65.5694 13.9422L65.4954 13.7236ZM76.2506 7.46185L67.3148 12.6209L67.4506 12.8561L76.3863 7.697L76.2506 7.46185ZM67.2089 11.5324L56.1568 17.9133L56.2926 18.1485L67.3447 11.7676L67.2089 11.5324ZM77.0069 5.87556L68.0712 11.0346L68.2069 11.2698L77.1592 6.04889L77.0069 5.87556ZM76.1338 5.17779L57.9487 15.6769L58.0845 15.9121L76.2861 5.35112L76.1338 5.17779ZM74.7737 4.81337L59.7406 13.4405L59.8764 13.6756L74.9261 4.9867L74.7737 4.81337ZM73.3519 4.43239L61.5159 11.2659L61.6683 11.4392L73.5042 4.60572L73.3519 4.43239ZM71.9919 4.06797L63.3697 9.04601L63.5054 9.28116L72.1442 4.2413L71.9919 4.06797ZM70.57 3.68699L65.1615 6.80958L65.2973 7.04473L70.7223 3.86032L70.57 3.68699ZM69.21 3.32258L66.9534 4.57315L67.0892 4.8083L69.3623 3.49591L69.21 3.32258Z" fill="#15B49E"/>
</svg>
