<svg width="70" height="70" viewBox="0 0 70 70" fill="none" xmlns="http://www.w3.org/2000/svg">
<path fill-rule="evenodd" clip-rule="evenodd" d="M13.125 17.5H21.6168C23.0004 17.5 24.2744 16.7784 24.9894 15.613L25.1562 15.3125C25.8266 13.9719 27.1968 13.125 28.6957 13.125H41.3026C42.6875 13.125 43.9629 13.8463 44.6802 15.012L44.8476 15.3125C45.5204 16.6535 46.8923 17.5 48.3926 17.5H56.875C59.2912 17.5 61.25 19.4588 61.25 21.875V52.5C61.25 54.9162 59.2912 56.875 56.875 56.875H13.125C10.7088 56.875 8.75 54.9162 8.75 52.5V21.875C8.75 19.4588 10.7088 17.5 13.125 17.5Z" stroke="#5E5D5B" stroke-width="2" stroke-linecap="round" stroke-linejoin="round"/>
<circle cx="35" cy="37.1875" r="10.9375" stroke="#5E5D5B" stroke-width="2" stroke-linecap="round" stroke-linejoin="round"/>
</svg>
