<svg width="78" height="64" viewBox="0 0 78 64" fill="none" xmlns="http://www.w3.org/2000/svg">
<path d="M0 17.8461L7.05979 15.047L9.87878 22.0569L2.81899 24.856L0 17.8461Z" fill="#FFF8F2"/>
<path d="M18.7716 10.8362L46.1025 0L57.0158 27.1378L29.6849 37.974L18.7716 10.8362Z" fill="#FFF8F2"/>
<path d="M31.5929 41.0777L37.8651 38.5909L40.3696 44.8187L34.0974 47.3055L31.5929 41.0777Z" fill="#FFF8F2"/>
<path d="M45.0105 51.0476L48.2961 49.7449L49.608 53.0073L46.3224 54.31L45.0105 51.0476Z" fill="#FFF8F2"/>
<path d="M51.2523 39.3799L70.3673 31.8012L78 50.7812L58.8849 58.36L51.2523 39.3799Z" fill="#FFF8F2"/>
<path d="M31.5929 57.3656L38.2745 54.7165L40.9425 61.3509L34.2609 64L31.5929 57.3656Z" fill="#FFF8F2"/>
<path d="M3.38604 41.2195L20.7189 34.3473L27.64 51.5578L10.3071 58.43L3.38604 41.2195Z" fill="#FFF8F2"/>
<path fill-rule="evenodd" clip-rule="evenodd" d="M60.0788 15.1724H57.4776L58.0726 13.4674H60.673L60.0788 15.1724ZM47.9709 13.4674C47.9879 13.5866 47.9964 13.7105 47.9964 13.8392V15.1724H45.2815V14.0735H38.2307V15.1724H35.5159V13.8392C35.5159 13.7105 35.5241 13.5866 35.5405 13.4674L47.9709 13.4674ZM27.3835 15.1724L27.9776 13.4674H25.3773L24.7823 15.1724H27.3835Z" fill="white"/>
<path fill-rule="evenodd" clip-rule="evenodd" d="M58.2961 20.2872H55.6925L56.2875 18.5823H58.8903L58.2961 20.2872ZM47.9963 18.5823V20.2872H45.2814V18.5823H47.9963ZM23.5922 18.5823H26.195L25.6008 20.2872H22.9972L23.5922 18.5823ZM35.5158 18.5823V20.2872H38.2306V18.5823H35.5158Z" fill="white"/>
<path fill-rule="evenodd" clip-rule="evenodd" d="M29.644 30.5977H27.3198V38.5664H24.7612V30.5977H16.1284V29.2109L23.5307 8H26.0893V8.11719L22.4422 18.5823H21.3461L20.7511 20.2872H21.848L19.058 28.293H24.7612V17.1992H27.3198V28.293H29.644V30.5977ZM45.5229 36.3984C45.5229 37.0365 45.3146 37.5573 44.8979 37.9609C44.4812 38.3646 43.9539 38.5664 43.3159 38.5664H35.2104C34.5724 38.5664 34.0515 38.3646 33.6479 37.9609C33.2442 37.5573 33.0424 37.0365 33.0424 36.3984V10.168C33.0424 9.52995 33.2442 9.00911 33.6479 8.60547C34.0515 8.20182 34.5724 8 35.2104 8H43.3159C43.9539 8 44.4812 8.20182 44.8979 8.60547C45.3146 9.00911 45.5229 9.52995 45.5229 10.168V13.4674H42.808V10.4023H35.7573V13.4674H35.2999C35.2835 13.5866 35.2753 13.7105 35.2753 13.8392V15.1724H35.7573V18.5823H33.2697V20.2872H35.7573V36.1641H42.808V14.0735H45.0409V15.1724H45.5229V18.5823H43.0353V20.2872H45.5229V36.3984ZM62.3393 30.5977H60.0151V38.5664H57.4565V30.5977H48.8237V29.2109L56.226 8H58.7846V8.11719L55.1375 18.5823H54.0414L53.4464 20.2872H54.5434L51.7534 28.293H57.4565V17.1992H60.0151V28.293H62.3393V30.5977Z" fill="white"/>
<path fill-rule="evenodd" clip-rule="evenodd" d="M56.0676 15.1724H53.4665L54.0615 13.4674H56.6618L56.0676 15.1724ZM43.9598 13.4674C43.9767 13.5866 43.9852 13.7105 43.9852 13.8392V15.1724H41.2704V14.0735H34.2196V15.1724H31.5047V13.8392C31.5047 13.7105 31.5129 13.5866 31.5294 13.4674L43.9598 13.4674ZM23.3723 15.1724L23.9665 13.4674H21.3662L20.7711 15.1724H23.3723Z" fill="white"/>
<path fill-rule="evenodd" clip-rule="evenodd" d="M54.285 20.2872H51.6814L52.2764 18.5823H54.8792L54.285 20.2872ZM43.9851 18.5823V20.2872H41.2703V18.5823H43.9851ZM19.5811 18.5823H22.1839L21.5897 20.2872H18.9861L19.5811 18.5823ZM31.5047 18.5823V20.2872H34.2195V18.5823H31.5047Z" fill="white"/>
<path fill-rule="evenodd" clip-rule="evenodd" d="M25.6327 30.5977H23.3085V38.5664H20.7499V30.5977H12.1171V29.2109L19.5194 8H22.078V8.11719L15.0468 28.293H20.7499V20.2872H21.349L21.9432 18.5823H20.7499V17.1992H23.3085V28.293H25.6327V30.5977ZM41.5116 36.3984C41.5116 37.0365 41.3033 37.5573 40.8866 37.9609C40.47 38.3646 39.9426 38.5664 39.3046 38.5664H31.1991C30.5611 38.5664 30.0403 38.3646 29.6366 37.9609C29.233 37.5573 29.0312 37.0365 29.0312 36.3984V10.168C29.0312 9.52995 29.233 9.00911 29.6366 8.60547C30.0403 8.20182 30.5611 8 31.1991 8H39.3046C39.9426 8 40.47 8.20182 40.8866 8.60547C41.3033 9.00911 41.5116 9.52995 41.5116 10.168V13.4674H38.7968V10.4023H31.746V13.4674H31.2886C31.2722 13.5866 31.264 13.7105 31.264 13.8392V15.1724H31.746V18.5823H31.264V20.2872H31.746V36.1641H38.7968V14.0735H41.0296V15.1724H41.5116V18.5823H41.0296V20.2872H41.5116V36.3984ZM58.328 30.5977H56.0038V38.5664H53.4452V30.5977H44.8124V29.2109L52.2148 8H54.7733V8.11719L47.7421 28.293H53.4452V20.2872H54.0443L54.6385 18.5823H53.4452V17.1992H56.0038V28.293H58.328V30.5977Z" fill="white"/>
<path fill-rule="evenodd" clip-rule="evenodd" d="M60.0788 15.1724H57.4776L58.0726 13.4674H60.673L60.0788 15.1724ZM47.9709 13.4674C47.9879 13.5866 47.9964 13.7105 47.9964 13.8392V15.1724H45.2815V14.0735H38.2307V15.1724H35.5159V13.8392C35.5159 13.7105 35.5241 13.5866 35.5405 13.4674L47.9709 13.4674ZM27.3835 15.1724L27.9776 13.4674H25.3773L24.7823 15.1724H27.3835Z" fill="#FF6F6F" style="mix-blend-mode:multiply"/>
<path fill-rule="evenodd" clip-rule="evenodd" d="M58.2961 20.2872H55.6925L56.2875 18.5823H58.8903L58.2961 20.2872ZM47.9963 18.5823V20.2872H45.2814V18.5823H47.9963ZM23.5922 18.5823H26.195L25.6008 20.2872H22.9972L23.5922 18.5823ZM35.5158 18.5823V20.2872H38.2306V18.5823H35.5158Z" fill="#FF6F6F" style="mix-blend-mode:multiply"/>
<path fill-rule="evenodd" clip-rule="evenodd" d="M29.644 30.5977H27.3198V38.5664H24.7612V30.5977H16.1284V29.2109L23.5307 8H26.0893V8.11719L22.4422 18.5823H21.3461L20.7511 20.2872H21.848L19.058 28.293H24.7612V17.1992H27.3198V28.293H29.644V30.5977ZM45.5229 36.3984C45.5229 37.0365 45.3146 37.5573 44.8979 37.9609C44.4812 38.3646 43.9539 38.5664 43.3159 38.5664H35.2104C34.5724 38.5664 34.0515 38.3646 33.6479 37.9609C33.2442 37.5573 33.0424 37.0365 33.0424 36.3984V10.168C33.0424 9.52995 33.2442 9.00911 33.6479 8.60547C34.0515 8.20182 34.5724 8 35.2104 8H43.3159C43.9539 8 44.4812 8.20182 44.8979 8.60547C45.3146 9.00911 45.5229 9.52995 45.5229 10.168V13.4674H42.808V10.4023H35.7573V13.4674H35.2999C35.2835 13.5866 35.2753 13.7105 35.2753 13.8392V15.1724H35.7573V18.5823H33.2697V20.2872H35.7573V36.1641H42.808V14.0735H45.0409V15.1724H45.5229V18.5823H43.0353V20.2872H45.5229V36.3984ZM62.3393 30.5977H60.0151V38.5664H57.4565V30.5977H48.8237V29.2109L56.226 8H58.7846V8.11719L55.1375 18.5823H54.0414L53.4464 20.2872H54.5434L51.7534 28.293H57.4565V17.1992H60.0151V28.293H62.3393V30.5977Z" fill="#FF6F6F" style="mix-blend-mode:multiply"/>
<path fill-rule="evenodd" clip-rule="evenodd" d="M56.0675 15.1724H53.4664L54.0614 13.4674H56.6617L56.0675 15.1724ZM43.9597 13.4674C43.9767 13.5866 43.9851 13.7105 43.9851 13.8392V15.1724H41.2703V14.0735H34.2195V15.1724H31.5047V13.8392C31.5047 13.7105 31.5129 13.5866 31.5293 13.4674L43.9597 13.4674ZM23.3722 15.1724L23.9664 13.4674H21.3661L20.7711 15.1724H23.3722Z" fill="#4DE6FF" style="mix-blend-mode:multiply"/>
<path fill-rule="evenodd" clip-rule="evenodd" d="M54.2851 20.2872H51.6814L52.2764 18.5823H54.8792L54.2851 20.2872ZM43.9852 18.5823V20.2872H41.2703V18.5823H43.9852ZM19.5811 18.5823H22.1839L21.5897 20.2872H18.9861L19.5811 18.5823ZM31.5047 18.5823V20.2872H34.2196V18.5823H31.5047Z" fill="#4DE6FF" style="mix-blend-mode:multiply"/>
<path fill-rule="evenodd" clip-rule="evenodd" d="M25.6327 30.5977H23.3085V38.5664H20.7499V30.5977H12.1171V29.2109L19.5194 8H22.078V8.11719L15.0468 28.293H20.7499V20.2872H21.349L21.9432 18.5823H20.7499V17.1992H23.3085V28.293H25.6327V30.5977ZM41.5116 36.3984C41.5116 37.0365 41.3033 37.5573 40.8866 37.9609C40.47 38.3646 39.9426 38.5664 39.3046 38.5664H31.1991C30.5611 38.5664 30.0403 38.3646 29.6366 37.9609C29.233 37.5573 29.0312 37.0365 29.0312 36.3984V10.168C29.0312 9.52995 29.233 9.00911 29.6366 8.60547C30.0403 8.20182 30.5611 8 31.1991 8H39.3046C39.9426 8 40.47 8.20182 40.8866 8.60547C41.3033 9.00911 41.5116 9.52995 41.5116 10.168V13.4674H38.7968V10.4023H31.746V13.4674H31.2886C31.2722 13.5866 31.264 13.7105 31.264 13.8392V15.1724H31.746V18.5823H31.264V20.2872H31.746V36.1641H38.7968V14.0735H41.0296V15.1724H41.5116V18.5823H41.0296V20.2872H41.5116V36.3984ZM58.328 30.5977H56.0038V38.5664H53.4452V30.5977H44.8124V29.2109L52.2148 8H54.7733V8.11719L47.7421 28.293H53.4452V20.2872H54.0443L54.6385 18.5823H53.4452V17.1992H56.0038V28.293H58.328V30.5977Z" fill="#4DE6FF" style="mix-blend-mode:multiply"/>
<path fill-rule="evenodd" clip-rule="evenodd" d="M12.4253 39.9918H17.9624V39.3182H9.22607V40.7782H12.4253V39.9918ZM70.1596 39.3182C70.3551 39.7493 70.4734 40.2359 70.5144 40.7782L67.1451 40.7782C66.8811 40.1992 66.3143 39.9098 65.4448 39.9098H63.0659V40.7782H59.8667V39.3182L70.1596 39.3182ZM57.2827 39.3182V40.7782H54.1655V39.3182H57.2827ZM46.4409 39.3182H50.0816L50.649 40.7782H46.4409V39.3182ZM43.8569 39.3182V40.7782H40.6577V39.3182H43.8569ZM33.1519 39.3182H36.3511V40.7782H33.1519V39.3182ZM30.5679 39.3182V40.7782H27.3687V39.9098H22.98V40.7782H19.7808V39.3182H30.5679Z" fill="white"/>
<path fill-rule="evenodd" clip-rule="evenodd" d="M9.22607 45.1581V43.6981H12.4253V45.1581H9.22607ZM49.3668 45.1581L46.4409 45.1581V43.6981H51.7837L52.3511 45.1581H49.3784L49.353 45.0914C49.3577 45.1138 49.3623 45.136 49.3668 45.1581ZM70.5308 43.6981V45.1581H67.3179V43.6981H70.5308ZM59.8667 43.6981V45.1581H63.0659V43.6981H59.8667ZM57.2827 43.6981V45.1581H54.1655V43.6981H57.2827ZM43.8569 43.6981V45.1581H40.6577V43.6981H43.8569ZM33.1519 43.6981H36.3511V45.1581H33.1519V43.6981ZM30.5679 43.6981V45.1581H27.3687V43.6981H30.5679ZM19.7808 43.6981V45.1581H22.98V43.6981H19.7808Z" fill="white"/>
<path fill-rule="evenodd" clip-rule="evenodd" d="M16.4455 36.5891H10.9084V39.3182H9.22607V40.7782H10.9084V42.9191H15.6389V45.6945H10.9084V55.1555H7.7092V33.759H16.4455V36.5891ZM29.051 53.2004C29.051 54.5038 28.4039 55.1555 27.1096 55.1555H20.1643C18.8973 55.1555 18.2639 54.5038 18.2639 53.2004V35.7277C18.2639 34.4152 18.8973 33.759 20.1643 33.759H27.1096C28.4039 33.759 29.051 34.4152 29.051 35.7277V39.3182H25.8518V36.507H21.4631V39.3182H19.7808V40.7782H21.4631V43.6981H20.4096V45.1581H21.4631V52.4074H25.8518V39.9098H27.3687V40.7782H29.051V43.6981H27.9975V45.1581H29.051V53.2004ZM42.3401 53.2004C42.3401 54.5038 41.6838 55.1555 40.3713 55.1555H33.5764C32.2821 55.1555 31.635 54.5038 31.635 53.2004V33.759H34.8342V39.3182H33.1519V40.7782H34.8342V43.6981H33.7807V45.1581H34.8342V52.4074H39.1408V33.759H42.3401V39.3182H40.6577V40.7782H42.3401V43.6981H41.2866V45.1581H42.3401V53.2004ZM55.7658 55.1555H52.9631L49.157 45.1581H49.9957L49.9819 45.0914L50.0073 45.1581H52.1565L52.8537 46.9523C52.717 46.2961 52.6487 45.7811 52.6487 45.4074V45.1581H52.9799L52.6487 44.3056V33.759H55.7658V39.3182H54.1655V40.7782H55.7658V43.6981H54.7944V45.1581H55.7658V55.1555ZM51.5891 43.6981L50.4544 40.7782H46.4409V39.3182H49.8871L47.7268 33.759H44.924V55.1555H48.0412V45.1581H47.0698V43.6981H48.0412V43.2336C48.0412 42.8599 47.9729 42.3449 47.8362 41.6887L48.6012 43.6981H51.5891ZM69.0139 51.1223C69.0139 52.3801 68.6402 53.369 67.8928 54.0891C67.1454 54.8 66.1382 55.1555 64.8713 55.1555H58.3498V33.759H64.8713C66.1382 33.759 67.1454 34.1236 67.8928 34.8527C68.6402 35.5728 69.0139 36.5617 69.0139 37.8195V39.3182H65.801V38.298C65.801 37.104 65.1766 36.507 63.9279 36.507H61.549V39.3182H59.8667V40.7782H61.549V43.6981H60.4956V45.1581H61.549V52.4074H63.8459C65.1493 52.4074 65.801 51.8013 65.801 50.5891V39.9277C66.471 39.999 66.919 40.2825 67.1451 40.7782H69.0139V43.6981H67.9468V45.1581H69.0139V51.1223ZM9.85495 43.6981V45.1581H13.0542V43.6981H9.85495Z" fill="white"/>
<path fill-rule="evenodd" clip-rule="evenodd" d="M11.7161 39.9918H17.2532V39.3182H8.51688V40.7782H11.7161V39.9918ZM69.4504 39.3182C69.6459 39.7493 69.7642 40.2359 69.8052 40.7782L66.4359 40.7782C66.1719 40.1992 65.6051 39.9098 64.7356 39.9098H62.3567V40.7782H59.1575V39.3182L69.4504 39.3182ZM56.5735 39.3182V40.7782H53.4563V39.3182H56.5735ZM45.7317 39.3182H49.3724L49.9398 40.7782H45.7317V39.3182ZM43.1477 39.3182V40.7782H39.9485V39.3182H43.1477ZM32.4427 39.3182H35.6419V40.7782H32.4427V39.3182ZM29.8587 39.3182V40.7782H26.6595V39.9098H22.2708V40.7782H19.0716V39.3182H29.8587Z" fill="white"/>
<path fill-rule="evenodd" clip-rule="evenodd" d="M8.51688 45.1581V43.6981H11.7161V45.1581H8.51688ZM48.6576 45.1581L45.7317 45.1581V43.6981H51.0745L51.6419 45.1581H48.6692L48.6438 45.0914C48.6485 45.1138 48.6531 45.136 48.6576 45.1581ZM69.8216 43.6981V45.1581H66.6087V43.6981H69.8216ZM59.1575 43.6981V45.1581H62.3567V43.6981H59.1575ZM56.5735 43.6981V45.1581H53.4563V43.6981H56.5735ZM43.1477 43.6981V45.1581H39.9485V43.6981H43.1477ZM32.4427 43.6981H35.6419V45.1581H32.4427V43.6981ZM29.8587 43.6981V45.1581H26.6595V43.6981H29.8587ZM19.0716 43.6981V45.1581H22.2708V43.6981H19.0716Z" fill="white"/>
<path fill-rule="evenodd" clip-rule="evenodd" d="M15.7363 36.5891H10.1992V39.3182H8.51687V40.7782H10.1992V42.9191H14.9297V45.6945H10.1992V55.1555H7V33.759H15.7363V36.5891ZM28.3418 53.2004C28.3418 54.5038 27.6947 55.1555 26.4004 55.1555H19.4551C18.1882 55.1555 17.5547 54.5038 17.5547 53.2004V35.7277C17.5547 34.4152 18.1882 33.759 19.4551 33.759H26.4004C27.6947 33.759 28.3418 34.4152 28.3418 35.7277V39.3182H25.1426V36.507H20.7539V39.3182H19.0716V40.7782H20.7539V43.6981H19.0716V45.1581H20.7539V52.4074H25.1426V39.9098H26.6595V40.7782H28.3418V43.6981H26.6595V45.1581H28.3418V53.2004ZM41.6309 53.2004C41.6309 54.5038 40.9746 55.1555 39.6621 55.1555H32.8672C31.5729 55.1555 30.9258 54.5038 30.9258 53.2004V33.759H34.125V39.3182H32.4427V40.7782H34.125V43.6981H32.4427V45.1581H34.125V52.4074H38.4316V33.759H41.6309V39.3182H39.9485V40.7782H41.6309V43.6981H39.9485V45.1581H41.6309V53.2004ZM55.0566 55.1555H52.2539L48.4478 45.1581H48.6576L48.6438 45.0914L48.6692 45.1581H51.4473L52.1445 46.9523C52.0078 46.2961 51.9395 45.7811 51.9395 45.4074V33.759H55.0566V39.3182H53.4563V40.7782H55.0566V43.6981H53.4563V45.1581H55.0566V55.1555ZM50.8799 43.6981L49.7452 40.7782H45.7317V39.3182H49.1779L47.0176 33.759H44.2148V55.1555H47.332V45.1581H45.7317V43.6981H47.332V43.2336C47.332 42.8599 47.2637 42.3449 47.127 41.6887L47.892 43.6981H50.8799ZM68.3047 51.1223C68.3047 52.3801 67.931 53.369 67.1836 54.0891C66.4362 54.8 65.429 55.1555 64.1621 55.1555H57.6406V33.759H64.1621C65.429 33.759 66.4362 34.1236 67.1836 34.8527C67.931 35.5728 68.3047 36.5617 68.3047 37.8195V39.3182H65.0918V38.298C65.0918 37.104 64.4674 36.507 63.2188 36.507H60.8398V39.3182H59.1575V40.7782H60.8398V43.6981H59.1575V45.1581H60.8398V52.4074H63.1367C64.4401 52.4074 65.0918 51.8013 65.0918 50.5891V39.9277C65.7618 39.999 66.2098 40.2825 66.4359 40.7782H68.3047V43.6981H66.6087V45.1581H68.3047V51.1223ZM8.51687 43.6981V45.1581H11.7161V43.6981H8.51687Z" fill="white"/>
<path fill-rule="evenodd" clip-rule="evenodd" d="M12.4253 39.9918H17.9624V39.3182H9.2261V40.7782H12.4253V39.9918ZM70.1596 39.3182C70.3551 39.7493 70.4734 40.2359 70.5144 40.7782L67.1452 40.7782C66.8811 40.1992 66.3143 39.9098 65.4449 39.9098H63.0659V40.7782H59.8667V39.3182L70.1596 39.3182ZM57.2827 39.3182V40.7782H54.1656V39.3182H57.2827ZM46.4409 39.3182H50.0817L50.649 40.7782H46.4409V39.3182ZM43.857 39.3182V40.7782H40.6577V39.3182H43.857ZM33.1519 39.3182H36.3511V40.7782H33.1519V39.3182ZM30.5679 39.3182V40.7782H27.3687V39.9098H22.98V40.7782H19.7808V39.3182H30.5679Z" fill="#FF6F6F" style="mix-blend-mode:multiply"/>
<path fill-rule="evenodd" clip-rule="evenodd" d="M9.2261 45.1581V43.6981H12.4253V45.1581H9.2261ZM49.3668 45.1581L46.4409 45.1581V43.6981H51.7837L52.3511 45.1581H49.3784L49.3531 45.0914C49.3577 45.1138 49.3623 45.136 49.3668 45.1581ZM70.5308 43.6981V45.1581H67.3179V43.6981H70.5308ZM59.8667 43.6981V45.1581H63.0659V43.6981H59.8667ZM57.2827 43.6981V45.1581H54.1656V43.6981H57.2827ZM43.857 43.6981V45.1581H40.6577V43.6981H43.857ZM33.1519 43.6981H36.3511V45.1581H33.1519V43.6981ZM30.5679 43.6981V45.1581H27.3687V43.6981H30.5679ZM19.7808 43.6981V45.1581H22.98V43.6981H19.7808Z" fill="#FF6F6F" style="mix-blend-mode:multiply"/>
<path fill-rule="evenodd" clip-rule="evenodd" d="M16.4455 36.5891H10.9084V39.3182H9.22607V40.7782H10.9084V42.9191H15.6389V45.6945H10.9084V55.1555H7.7092V33.759H16.4455V36.5891ZM29.051 53.2004C29.051 54.5038 28.4039 55.1555 27.1096 55.1555H20.1643C18.8973 55.1555 18.2639 54.5038 18.2639 53.2004V35.7277C18.2639 34.4152 18.8973 33.759 20.1643 33.759H27.1096C28.4039 33.759 29.051 34.4152 29.051 35.7277V39.3182H25.8518V36.507H21.4631V39.3182H19.7808V40.7782H21.4631V43.6981H20.4096V45.1581H21.4631V52.4074H25.8518V39.9098H27.3687V40.7782H29.051V43.6981H27.9975V45.1581H29.051V53.2004ZM42.3401 53.2004C42.3401 54.5038 41.6838 55.1555 40.3713 55.1555H33.5764C32.2821 55.1555 31.635 54.5038 31.635 53.2004V33.759H34.8342V39.3182H33.1519V40.7782H34.8342V43.6981H33.7807V45.1581H34.8342V52.4074H39.1408V33.759H42.3401V39.3182H40.6577V40.7782H42.3401V43.6981H41.2866V45.1581H42.3401V53.2004ZM55.7658 55.1555H52.9631L49.157 45.1581H49.9957L49.9819 45.0914L50.0073 45.1581H52.1565L52.8537 46.9523C52.717 46.2961 52.6487 45.7811 52.6487 45.4074V45.1581H52.9799L52.6487 44.3056V33.759H55.7658V39.3182H54.1655V40.7782H55.7658V43.6981H54.7944V45.1581H55.7658V55.1555ZM51.5891 43.6981L50.4544 40.7782H46.4409V39.3182H49.8871L47.7268 33.759H44.924V55.1555H48.0412V45.1581H47.0698V43.6981H48.0412V43.2336C48.0412 42.8599 47.9729 42.3449 47.8362 41.6887L48.6012 43.6981H51.5891ZM69.0139 51.1223C69.0139 52.3801 68.6402 53.369 67.8928 54.0891C67.1454 54.8 66.1382 55.1555 64.8713 55.1555H58.3498V33.759H64.8713C66.1382 33.759 67.1454 34.1236 67.8928 34.8527C68.6402 35.5728 69.0139 36.5617 69.0139 37.8195V39.3182H65.801V38.298C65.801 37.104 65.1766 36.507 63.9279 36.507H61.549V39.3182H59.8667V40.7782H61.549V43.6981H60.4956V45.1581H61.549V52.4074H63.8459C65.1493 52.4074 65.801 51.8013 65.801 50.5891V39.9277C66.471 39.999 66.919 40.2825 67.1451 40.7782H69.0139V43.6981H67.9468V45.1581H69.0139V51.1223ZM9.85495 43.6981V45.1581H13.0542V43.6981H9.85495Z" fill="#FF6F6F" style="mix-blend-mode:multiply"/>
<path fill-rule="evenodd" clip-rule="evenodd" d="M11.7161 39.9918H17.2532V39.3182H8.51691V40.7782H11.7161V39.9918ZM69.4504 39.3182C69.6459 39.7493 69.7642 40.2359 69.8052 40.7782L66.436 40.7782C66.1719 40.1992 65.6051 39.9098 64.7357 39.9098H62.3568V40.7782H59.1575V39.3182L69.4504 39.3182ZM56.5735 39.3182V40.7782H53.4564V39.3182H56.5735ZM45.7318 39.3182H49.3725L49.9398 40.7782H45.7318V39.3182ZM43.1478 39.3182V40.7782H39.9485V39.3182H43.1478ZM32.4427 39.3182H35.6419V40.7782H32.4427V39.3182ZM29.8587 39.3182V40.7782H26.6595V39.9098H22.2708V40.7782H19.0716V39.3182H29.8587Z" fill="#4DE6FF" style="mix-blend-mode:multiply"/>
<path fill-rule="evenodd" clip-rule="evenodd" d="M8.51691 45.1581V43.6981H11.7161V45.1581H8.51691ZM48.6576 45.1581L45.7318 45.1581V43.6981H51.0745L51.6419 45.1581H48.6692L48.6439 45.0914C48.6485 45.1138 48.6531 45.136 48.6576 45.1581ZM69.8216 43.6981V45.1581H66.6087V43.6981H69.8216ZM59.1575 43.6981V45.1581H62.3568V43.6981H59.1575ZM56.5735 43.6981V45.1581H53.4564V43.6981H56.5735ZM43.1478 43.6981V45.1581H39.9485V43.6981H43.1478ZM32.4427 43.6981H35.6419V45.1581H32.4427V43.6981ZM29.8587 43.6981V45.1581H26.6595V43.6981H29.8587ZM19.0716 43.6981V45.1581H22.2708V43.6981H19.0716Z" fill="#4DE6FF" style="mix-blend-mode:multiply"/>
<path fill-rule="evenodd" clip-rule="evenodd" d="M15.7363 36.5891H10.1992V39.3182H8.51687V40.7782H10.1992V42.9191H14.9297V45.6945H10.1992V55.1555H7V33.759H15.7363V36.5891ZM28.3418 53.2004C28.3418 54.5038 27.6947 55.1555 26.4004 55.1555H19.4551C18.1882 55.1555 17.5547 54.5038 17.5547 53.2004V35.7277C17.5547 34.4152 18.1882 33.759 19.4551 33.759H26.4004C27.6947 33.759 28.3418 34.4152 28.3418 35.7277V39.3182H25.1426V36.507H20.7539V39.3182H19.0716V40.7782H20.7539V43.6981H19.0716V45.1581H20.7539V52.4074H25.1426V39.9098H26.6595V40.7782H28.3418V43.6981H26.6595V45.1581H28.3418V53.2004ZM41.6309 53.2004C41.6309 54.5038 40.9746 55.1555 39.6621 55.1555H32.8672C31.5729 55.1555 30.9258 54.5038 30.9258 53.2004V33.759H34.125V39.3182H32.4427V40.7782H34.125V43.6981H32.4427V45.1581H34.125V52.4074H38.4316V33.759H41.6309V39.3182H39.9485V40.7782H41.6309V43.6981H39.9485V45.1581H41.6309V53.2004ZM55.0566 55.1555H52.2539L48.4478 45.1581H48.6576L48.6438 45.0914L48.6692 45.1581H51.4473L52.1445 46.9523C52.0078 46.2961 51.9395 45.7811 51.9395 45.4074V33.759H55.0566V39.3182H53.4563V40.7782H55.0566V43.6981H53.4563V45.1581H55.0566V55.1555ZM50.8799 43.6981L49.7452 40.7782H45.7317V39.3182H49.1779L47.0176 33.759H44.2148V55.1555H47.332V45.1581H45.7317V43.6981H47.332V43.2336C47.332 42.8599 47.2637 42.3449 47.127 41.6887L47.892 43.6981H50.8799ZM68.3047 51.1223C68.3047 52.3801 67.931 53.369 67.1836 54.0891C66.4362 54.8 65.429 55.1555 64.1621 55.1555H57.6406V33.759H64.1621C65.429 33.759 66.4362 34.1236 67.1836 34.8527C67.931 35.5728 68.3047 36.5617 68.3047 37.8195V39.3182H65.0918V38.298C65.0918 37.104 64.4674 36.507 63.2188 36.507H60.8398V39.3182H59.1575V40.7782H60.8398V43.6981H59.1575V45.1581H60.8398V52.4074H63.1367C64.4401 52.4074 65.0918 51.8013 65.0918 50.5891V39.9277C65.7618 39.999 66.2098 40.2825 66.4359 40.7782H68.3047V43.6981H66.6087V45.1581H68.3047V51.1223ZM8.51687 43.6981V45.1581H11.7161V43.6981H8.51687Z" fill="#4DE6FF" style="mix-blend-mode:multiply"/>
</svg>
